<?xml version="1.0" standalone="no"?>
<!DOCTYPE svg PUBLIC "-//W3C//DTD SVG 20010904//EN"
 "http://www.w3.org/TR/2001/REC-SVG-20010904/DTD/svg10.dtd">
<svg version="1.0" xmlns="http://www.w3.org/2000/svg"
 width="640.000000pt" height="640.000000pt" viewBox="0 0 640.000000 640.000000"
 preserveAspectRatio="xMidYMid meet">
<metadata>
Created by potrace 1.11, written by Peter Selinger 2001-2013
</metadata>
<g transform="translate(0.000000,640.000000) scale(0.100000,-0.100000)"
fill="#000000" stroke="none">
<path d="M1620 5903 c-55 -33 -73 -53 -103 -118 -38 -79 -52 -167 -51 -315 1
-181 30 -353 91 -545 15 -47 99 -253 139 -340 29 -62 150 -237 194 -281 22
-21 40 -44 40 -50 0 -6 -21 -25 -47 -42 -44 -28 -183 -161 -218 -207 -31 -41
-115 -174 -115 -182 0 -5 -11 -30 -25 -56 -42 -78 -99 -251 -166 -502 -17 -66
-40 -147 -50 -180 -25 -83 -64 -262 -80 -370 -17 -114 -17 -380 0 -465 15 -76
49 -179 66 -200 6 -8 23 -35 38 -60 14 -25 36 -56 49 -70 54 -59 54 -55 0
-109 -41 -41 -52 -59 -57 -96 -10 -61 0 -93 39 -129 19 -17 41 -46 51 -65 36
-71 107 -106 169 -83 23 9 44 9 87 0 49 -10 63 -9 103 6 71 27 116 95 116 179
0 28 12 33 58 21 29 -8 28 -18 -13 -154 -88 -294 -109 -355 -194 -567 -29 -72
-27 -105 10 -147 61 -71 150 -53 201 40 31 57 33 54 45 -71 7 -84 10 -90 32
-93 13 -2 27 0 32 5 5 5 2 73 -7 158 -16 148 -15 444 2 598 7 59 10 63 32 48
11 -7 11 -19 1 -69 -14 -69 -5 -115 23 -120 10 -2 45 9 78 24 l61 27 22 -20
c35 -33 126 -74 155 -71 35 4 39 37 17 114 -18 62 -16 78 14 94 18 9 21 7 27
-17 3 -16 29 -50 61 -78 l54 -50 -19 -45 c-50 -117 -75 -311 -61 -479 8 -109
15 -125 45 -119 14 3 18 11 16 28 -1 14 -5 89 -8 166 -6 123 -4 155 15 244 28
127 47 170 77 170 26 0 34 -17 23 -45 -13 -33 -9 -167 5 -208 8 -21 22 -47 33
-59 38 -42 139 -5 273 101 l24 19 41 -37 c80 -74 206 -121 328 -122 47 -1 63
3 80 20 29 28 35 126 13 210 -23 92 -22 98 31 131 59 38 96 38 132 2 83 -83
129 -236 139 -466 l7 -151 29 0 29 0 -2 95 c-3 143 -19 266 -46 356 -30 99
-30 101 -5 109 11 3 43 22 71 42 l51 35 42 -40 c22 -22 50 -41 61 -42 74 -8
100 14 91 77 -3 24 -15 66 -27 94 l-22 50 24 25 25 24 23 -87 c56 -211 105
-455 122 -598 13 -120 22 -145 49 -145 29 0 33 17 22 94 -9 69 -3 87 24 65 21
-17 86 -14 118 6 42 28 59 68 47 113 -12 41 -67 148 -82 157 -14 9 -11 25 5
25 15 0 79 -34 106 -56 8 -6 44 -15 80 -19 74 -8 133 -34 155 -69 8 -13 21
-46 28 -73 8 -28 27 -68 44 -89 41 -53 55 -82 57 -118 1 -26 6 -32 29 -34 26
-3 27 -1 27 40 0 53 -27 114 -69 157 -17 17 -31 42 -31 54 -1 34 -34 99 -66
129 -34 31 -109 58 -161 58 -23 0 -53 11 -83 30 -26 16 -75 36 -110 43 l-63
13 -45 79 c-99 177 -178 357 -166 376 3 5 14 9 25 9 15 0 19 -7 19 -31 0 -41
27 -97 57 -116 15 -10 44 -16 74 -15 34 1 61 -6 82 -19 45 -27 103 -24 168 9
67 34 99 78 99 139 0 27 7 56 18 71 49 71 54 157 13 212 l-20 28 57 59 c60 62
137 183 170 269 73 185 72 519 -2 799 -29 108 -104 306 -179 470 -30 66 -60
138 -67 160 -70 221 -407 552 -702 691 -43 20 -78 41 -78 47 1 7 21 28 46 47
26 19 82 65 125 103 44 37 83 67 88 67 5 0 27 -20 48 -44 51 -57 209 -171 304
-218 100 -49 228 -82 286 -74 49 6 110 35 135 62 9 11 28 44 42 74 51 110 29
279 -47 358 -34 36 -133 95 -188 113 -97 32 -223 84 -264 110 -25 16 -48 29
-52 29 -11 0 -139 94 -186 137 -50 46 -117 82 -154 83 -25 0 -80 -64 -144
-168 -24 -40 -65 -105 -90 -145 -25 -40 -69 -115 -98 -167 -87 -157 -158 -265
-172 -263 -40 7 -132 27 -189 40 -43 11 -135 17 -277 20 l-213 5 -10 37 c-5
20 -10 55 -10 77 0 40 1 42 51 63 77 32 211 124 251 173 57 69 92 145 96 207
3 48 -1 62 -24 98 -30 45 -59 63 -104 63 -64 0 -117 -38 -190 -135 -50 -68
-66 -100 -105 -216 l-33 -100 -27 48 c-63 108 -118 173 -188 225 -40 28 -88
58 -107 65 -44 15 -107 16 -148 2 -63 -22 -91 -115 -57 -195 17 -41 103 -139
149 -170 55 -37 239 -101 338 -118 35 -6 37 -9 48 -61 13 -63 9 -75 -26 -75
-67 0 -426 -87 -519 -125 l-34 -15 -35 63 c-76 136 -96 235 -136 668 -33 352
-98 556 -217 674 -97 96 -172 116 -253 68z m133 -57 c46 -21 79 -53 125 -123
82 -122 121 -282 147 -608 9 -104 18 -196 20 -204 3 -7 14 -68 25 -135 21
-128 50 -228 94 -313 14 -29 26 -57 26 -62 0 -5 -17 -15 -37 -22 -55 -17 -114
-48 -141 -73 l-24 -21 -44 48 c-58 65 -128 166 -166 240 -16 34 -35 68 -41 75
-33 41 -158 408 -181 534 -43 229 -42 408 5 545 37 110 110 155 192 119z
m1437 -616 c54 -29 44 -130 -22 -228 -41 -60 -257 -208 -271 -184 -11 17 35
153 77 231 88 161 152 215 216 181z m955 -59 c17 -10 55 -40 87 -67 131 -113
233 -171 458 -259 144 -56 181 -80 220 -142 57 -89 47 -219 -23 -295 -40 -44
-81 -54 -163 -39 -168 31 -471 238 -513 350 -19 52 -43 71 -68 55 -18 -11 -21
-40 -9 -79 5 -16 -10 -32 -76 -82 -46 -34 -115 -87 -154 -118 l-71 -56 -79 27
c-43 14 -80 27 -82 29 -3 3 52 98 165 285 15 25 49 83 76 130 72 126 178 280
191 280 6 0 25 -8 41 -19z m-1595 -81 c42 -27 102 -85 151 -147 9 -11 30 -49
46 -84 l31 -64 -24 -3 c-33 -5 -134 23 -199 54 -66 31 -157 111 -179 158 -21
44 -20 90 1 111 26 27 112 14 173 -25z m745 -595 c222 -28 314 -50 488 -119
174 -68 254 -112 399 -215 152 -108 299 -263 388 -407 30 -48 57 -93 59 -99 2
-5 40 -93 83 -195 95 -219 137 -343 173 -505 91 -406 44 -687 -151 -909 -150
-172 -451 -336 -682 -373 l-95 -15 -36 40 c-20 22 -44 45 -55 50 -16 8 -12 12
30 27 102 36 130 50 182 89 102 76 149 143 211 299 50 125 64 305 37 458 -25
138 -137 431 -182 476 -24 24 -16 32 29 30 36 -2 42 1 45 20 3 18 -7 27 -55
51 -108 55 -346 131 -518 167 -165 34 -244 40 -525 39 -261 -1 -296 -3 -415
-27 -344 -67 -612 -167 -774 -291 -66 -50 -82 -73 -61 -86 21 -14 21 -14 80
30 29 22 55 38 58 35 2 -2 -3 -22 -11 -44 -48 -118 -97 -405 -97 -559 0 -160
41 -345 99 -451 29 -54 120 -140 180 -170 36 -19 197 -73 254 -85 74 -17 201
-35 285 -42 51 -3 95 -11 98 -15 8 -13 -38 -68 -57 -68 -22 -1 -143 -57 -190
-88 l-38 -25 -28 26 c-15 15 -45 34 -66 43 -28 13 -43 28 -57 61 -11 25 -20
49 -20 55 0 18 -52 67 -71 67 -10 0 -28 -14 -41 -30 -13 -17 -32 -41 -43 -54
l-20 -24 -95 18 c-52 9 -138 29 -190 43 -52 14 -121 33 -152 41 -114 31 -269
132 -339 220 -33 42 -79 142 -104 225 -46 154 -43 404 6 621 38 166 129 532
135 542 4 6 17 47 30 92 32 112 79 242 98 270 8 13 31 53 50 89 19 36 52 90
74 119 49 65 170 183 237 230 112 80 298 178 385 203 14 4 50 18 80 30 92 39
284 79 470 98 91 10 317 5 425 -8z m1 -1155 c265 -22 540 -77 666 -135 62 -28
78 -48 151 -182 65 -120 89 -179 123 -308 24 -87 27 -120 28 -250 1 -214 -34
-335 -132 -451 -60 -71 -180 -154 -283 -194 -115 -46 -352 -70 -531 -56 l-88
8 -50 64 c-57 72 -101 104 -144 104 -30 0 -88 -52 -150 -134 l-28 -38 -87 7
c-248 19 -390 50 -529 118 -155 76 -220 160 -257 332 -20 94 -23 365 -5 479
13 86 48 235 60 258 5 9 21 45 35 79 33 82 44 93 134 129 42 17 83 34 91 39
15 8 150 47 240 70 56 13 196 36 315 51 173 20 277 23 441 10z m-201 -1503
c46 -48 126 -150 144 -185 7 -13 10 -30 7 -37 -8 -21 14 -32 75 -39 96 -10
248 -76 269 -116 22 -41 -29 -92 -177 -180 l-31 -19 24 -83 c13 -46 27 -106
30 -134 8 -67 -7 -78 -91 -64 -136 22 -222 64 -278 135 -15 19 -36 35 -45 35
-9 -1 -42 -24 -73 -53 -82 -76 -175 -118 -194 -87 -17 27 -23 121 -12 194 l11
79 -28 23 c-15 13 -35 24 -44 24 -10 0 -41 16 -69 35 -56 37 -75 74 -53 100
21 26 193 110 224 110 25 0 35 11 85 91 73 117 150 214 170 214 9 0 34 -19 56
-43z m1596 6 c16 -42 4 -101 -26 -133 -23 -24 -26 -34 -21 -64 13 -69 -38
-133 -121 -151 -34 -7 -73 12 -104 49 -15 18 -17 18 -40 3 -34 -24 -64 -21
-88 9 -39 50 -19 103 47 125 44 14 141 70 237 138 82 57 102 61 116 24z
m-3161 -53 c45 -32 149 -78 215 -95 33 -8 66 -23 73 -32 27 -36 4 -126 -39
-157 -29 -20 -75 -20 -134 0 -42 14 -49 14 -70 0 -48 -31 -79 -15 -108 56 -9
22 -28 43 -46 52 -73 38 -64 122 19 179 32 22 56 21 90 -3z m2247 -97 c-3 -21
-9 -61 -13 -89 l-6 -50 -61 -27 -61 -27 -36 34 c-39 38 -140 81 -214 91 -48 8
-86 33 -86 58 0 9 40 12 163 13 108 1 184 6 227 17 95 22 93 23 87 -20z
m-1454 -52 c25 -61 34 -71 77 -95 27 -15 52 -30 54 -35 3 -4 -15 -22 -39 -39
-50 -35 -52 -41 -30 -102 8 -23 15 -51 15 -61 0 -18 -3 -18 -47 5 -27 13 -57
33 -67 45 -24 27 -34 26 -87 -4 -62 -35 -71 -33 -63 13 3 20 12 47 20 59 22
35 17 46 -33 77 -44 26 -46 29 -29 42 10 7 39 16 65 19 65 9 71 12 71 34 0 19
49 110 60 111 3 0 18 -31 33 -69z m1544 42 c11 -10 36 -39 57 -65 31 -40 43
-48 71 -48 43 0 85 -19 85 -38 0 -8 -17 -30 -37 -48 -36 -33 -37 -35 -24 -67
35 -84 55 -146 49 -152 -12 -12 -48 6 -91 46 -23 21 -48 39 -56 39 -7 0 -30
-13 -50 -29 -37 -29 -74 -51 -87 -51 -4 0 -4 29 0 64 7 72 7 73 -63 91 -64 16
-59 35 19 66 l65 26 7 81 c9 108 17 119 55 85z m-1880 -439 l-13 -249 -38 -76
c-40 -81 -78 -129 -101 -129 -29 0 -58 40 -52 74 5 31 100 293 118 328 9 17
51 158 79 267 6 23 13 41 15 39 3 -2 -1 -117 -8 -254z m2318 -34 c28 -42 82
-139 132 -238 30 -57 35 -76 27 -90 -15 -24 -60 -27 -105 -7 -41 19 -61 55
-74 135 -4 25 -22 108 -40 185 -51 217 -52 222 -4 130 22 -44 51 -96 64 -115z
m-606 164 c26 -5 31 -11 31 -35 0 -15 -4 -30 -9 -33 -15 -10 -90 45 -84 60 6
16 16 17 62 8z"/>
<path d="M2395 4053 c-79 -10 -174 -39 -212 -65 -46 -31 -52 -48 -28 -68 21
-17 19 -37 -4 -45 -25 -8 -35 -35 -18 -52 11 -11 40 -8 178 18 195 37 209 41
202 67 -2 11 0 23 6 26 15 10 14 43 -3 53 -7 4 -21 23 -30 41 -17 33 -21 34
-91 25z"/>
<path d="M3620 4011 c-8 -6 -28 -12 -43 -16 -48 -10 -44 -50 7 -68 7 -3 5 -11
-6 -24 -41 -46 -17 -60 133 -79 68 -8 154 -18 190 -21 l66 -5 -2 66 c-1 66 -2
68 -43 101 -44 34 -61 38 -217 50 -38 3 -77 1 -85 -4z"/>
<path d="M2939 3911 c-32 -36 -89 -49 -133 -31 -44 17 -71 18 -71 0 0 -12 49
-53 75 -62 6 -2 6 -28 -1 -68 -12 -75 0 -160 33 -224 26 -51 39 -63 84 -82 81
-34 170 6 218 96 25 46 30 66 30 130 1 41 -2 87 -6 102 -7 23 -4 28 29 45 39
20 62 47 50 59 -3 4 -27 1 -52 -6 -77 -22 -173 1 -194 46 -14 32 -31 30 -62
-5z m123 -113 c-5 -5 -27 -12 -48 -14 -70 -8 -124 41 -67 61 21 8 37 5 75 -14
30 -15 45 -28 40 -33z m-103 -69 c50 -11 88 -3 119 25 20 17 24 18 32 6 13
-20 12 -112 -1 -147 -57 -154 -196 -158 -238 -8 -12 44 -15 158 -4 168 3 4 17
-2 29 -14 12 -11 41 -25 63 -30z"/>
<path d="M2503 2659 c-44 -13 -98 -69 -106 -109 -18 -87 38 -179 117 -194 88
-17 186 64 186 155 0 100 -101 176 -197 148z"/>
<path d="M3544 2590 c-92 -65 -83 -202 16 -252 99 -50 230 22 230 126 0 50
-23 91 -72 126 -56 41 -116 41 -174 0z"/>
<path d="M2813 2548 c-29 -32 -45 -90 -37 -133 7 -40 60 -90 106 -100 35 -8
95 11 126 38 19 18 26 19 40 9 82 -59 109 -72 153 -72 75 0 153 68 159 140 5
55 -1 80 -24 107 -19 22 -27 25 -37 16 -9 -9 -9 -22 0 -56 19 -77 -11 -125
-87 -142 -64 -14 -142 55 -142 125 0 19 -26 34 -41 24 -5 -3 -9 -12 -9 -21 0
-30 -33 -84 -61 -98 -92 -48 -153 17 -111 118 12 27 19 54 16 58 -9 15 -30 10
-51 -13z"/>
<path d="M2915 1611 c-60 -15 -84 -39 -105 -108 -11 -36 -20 -78 -20 -93 0
-65 41 -120 89 -120 31 0 41 -14 41 -60 0 -46 17 -80 40 -80 28 0 37 29 45
146 8 125 -1 159 -40 159 -26 0 -31 -5 -41 -40 -8 -30 -17 -41 -34 -43 -21 -3
-22 -1 -16 28 3 18 6 49 6 70 0 37 1 38 45 44 31 5 51 15 65 33 24 31 25 37 4
57 -16 17 -31 18 -79 7z"/>
<path d="M3068 1577 c-38 -17 -68 -47 -68 -68 0 -13 9 -19 38 -21 l37 -3 6
-170 c6 -175 20 -235 53 -235 21 0 26 24 26 132 l0 100 25 -6 c20 -5 32 0 55
23 27 27 30 36 30 94 0 54 -4 69 -27 100 -47 60 -114 81 -175 54z m124 -97 c7
-11 5 -28 -7 -55 -19 -44 -21 -42 -28 28 -4 39 -2 47 11 45 8 -2 19 -10 24
-18z"/>
<path d="M5277 2853 c-4 -3 -7 -13 -7 -22 0 -25 -43 -79 -77 -98 -41 -22 -42
-47 -3 -63 30 -12 83 -65 93 -92 7 -21 40 4 49 38 4 16 21 43 38 59 16 16 30
34 30 41 0 7 -19 25 -42 41 -36 24 -44 35 -46 66 -3 34 -18 47 -35 30z m32
-125 c18 -11 18 -14 5 -40 -17 -33 -21 -34 -53 -7 -23 19 -23 20 -6 39 21 23
28 24 54 8z"/>
<path d="M922 1433 c-5 -10 -12 -30 -16 -44 -3 -15 -22 -46 -41 -69 -39 -46
-38 -54 2 -65 15 -3 50 -22 76 -41 59 -43 78 -41 90 8 5 20 24 55 44 77 39 46
38 67 -4 76 -83 18 -108 30 -111 53 -4 26 -28 29 -40 5z m67 -85 c20 -7 37
-13 39 -14 2 -1 -6 -21 -18 -43 l-20 -41 -40 20 c-22 11 -40 23 -40 26 0 9 34
64 39 64 2 0 21 -5 40 -12z"/>
</g>
</svg>
